<?xml version="1.0" encoding="UTF-8" standalone="no"?>
<svg
   version="1.1"
   id="Layer_1"
   x="0px"
   y="0px"
   width="1500"
   viewBox="0 0 1500 1500"
   enable-background="new 0 0 5250 2000"
   xml:space="preserve"
   sodipodi:docname="lionlablogo-icon-transparent.svg"
   inkscape:version="1.4.4 (dcaf3e7, 2026-05-05)"
   height="1500"
   xmlns:inkscape="http://www.inkscape.org/namespaces/inkscape"
   xmlns:sodipodi="http://sodipodi.sourceforge.net/DTD/sodipodi-0.dtd"
   xmlns="http://www.w3.org/2000/svg"
   xmlns:svg="http://www.w3.org/2000/svg"><defs
   id="defs46" /><sodipodi:namedview
   id="namedview46"
   pagecolor="#ffffff"
   bordercolor="#000000"
   borderopacity="0.25"
   inkscape:showpageshadow="2"
   inkscape:pageopacity="0.0"
   inkscape:pagecheckerboard="true"
   inkscape:deskcolor="#ffffff"
   inkscape:zoom="0.28289273"
   inkscape:cx="825.4012"
   inkscape:cy="883.72719"
   inkscape:window-width="1512"
   inkscape:window-height="827"
   inkscape:window-x="169"
   inkscape:window-y="1118"
   inkscape:window-maximized="1"
   inkscape:current-layer="Layer_1" />
















<g
   id="g1"
   transform="translate(14.222015,-16.907444)"><path
     fill="#ff8907"
     opacity="1"
     stroke="none"
     d="m 1058.1219,745.21065 c 2.3458,16.1369 4.463,32.3129 7.2102,48.3812 0.6266,3.6645 2.9366,7.346 5.3113,10.358 16.5063,20.9364 33.1662,41.7535 49.9567,62.463 2.8534,3.5191 4.372,7.0934 4.9074,11.6073 1.6033,13.5188 3.6851,26.9808 5.5232,40.0606 20.3467,8.1825 27.9506,18.4475 26.1567,34.6035 -1.3716,12.352 -11.3073,23.0603 -23.5476,25.3781 -13.3944,2.5364 -26.6047,-3.9168 -32.6076,-15.9289 -6.8696,-13.7457 -2.9736,-26.6015 12.9095,-40.8289 -1.7238,-13.263 -3.323,-27.1222 -5.4886,-40.8921 -0.4223,-2.6851 -2.8442,-5.1836 -4.6839,-7.4976 -16.1776,-20.3478 -32.3601,-40.6928 -48.7192,-60.8943 -3.6797,-4.5441 -5.8745,-9.312 -6.7431,-15.1685 -5.5195,-37.2194 -11.4646,-74.37608 -16.9061,-111.60655 -0.9344,-6.39319 -3.0471,-10.91724 -8.5841,-14.69513 -15.6857,-10.70203 -30.94126,-22.03363 -46.389,-33.08539 -2.6405,-1.88916 -5.3935,-3.62097 -9.3659,-6.27484 -1.0189,8.97754 -1.1175,16.90802 -2.9977,24.39099 -1.8156,7.22718 -5.4679,13.99292 -8.9273,22.46503 4.1955,4.98267 9.4931,11.30261 14.8244,17.59405 2.8011,3.30555 5.6741,6.54987 8.49204,9.84125 12.9681,15.14697 12.8988,15.15466 14.5055,35.39618 1.3974,17.60231 2.7335,35.21651 4.6367,52.76681 0.4381,4.0394 2.48496,8.2439 4.80856,11.6856 19.9496,29.5496 40.0521,58.9971 60.3294,88.3226 3.1941,4.6193 4.5783,9.2225 4.6633,14.7987 0.4566,29.9928 1.2157,59.9809 1.8879,89.9703 0.044,1.96995 0.2324,3.93675 0.3712,6.18805 2.5834,1.0913 5.0155,2.0176 7.3609,3.1268 12.2368,5.7862 19.0748,18.1612 17.1533,30.9421 -2.0191,13.4298 -11.8594,23.6755 -24.5276,25.5382 -13.5977,1.9995 -26.626,-4.8998 -32.0784,-16.9878 -5.5535,-12.3119 -2.6343,-26.6164 8.4457,-35.1239 5.238,-4.022 6.5139,-8.0957 6.3186,-14.27475 -0.8851,-27.9813 -1.3591,-55.9771 -1.7856,-83.9706 -0.085,-5.5673 -1.6464,-10.2007 -4.8331,-14.8136 -19.8858,-28.786 -39.4741,-57.7775 -59.31326,-86.5961 -3.3008,-4.7949 -5.2598,-9.616 -5.6991,-15.5693 -1.5689,-21.2613 -3.62514,-42.48834 -5.68404,-63.7102 -0.2769,-2.85559 -0.8739,-6.22577 -2.5941,-8.30634 -10.3856,-12.56085 -21.1415,-24.81555 -32.6317,-38.17029 -9.98,8.4751 -19.5027,16.56202 -29.3397,24.91584 1.8357,3.28143 3.1693,5.89611 4.7102,8.38244 10.5299,16.99146 21.2848,33.84784 31.5218,51.01325 2.2594,3.7886 3.6462,8.5962 3.8641,13.0121 0.706,14.3082 0.8364,28.6521 0.8607,42.9828 0.01,5.5077 1.1717,10.3477 4.0367,15.1128 8.5613,14.2396 16.8016,28.672 24.95134,42.6585 20.89856,0.4411 32.57056,7.8933 36.27096,22.6598 3.2542,12.9854 -2.6809,26.7972 -14.3474,33.3886 -11.54036,6.5202 -26.5128,4.3886 -35.9403,-5.1165 -10.6431,-10.7308 -11.0564,-24.4097 -0.685,-42.045 -5.0297,-8.6814 -9.6656,-18.3227 -15.7891,-26.9021 -11.887,-16.6543 -17.1462,-34.7265 -16.0027,-55.1646 0.5725,-10.2347 1.0975,-21.1346 -1.7727,-30.7095 -2.7733,-9.2517 -9.9066,-17.2058 -15.1785,-25.69667 -5.9595,-9.59851 -11.9789,-19.15991 -18.014,-28.80419 -9.3011,8.29071 -11.01,19.48504 -5.0577,28.81958 17.679,27.72438 22.5059,57.28158 11.9073,88.76988 -1.4993,4.4547 -1.2051,8.1591 0.6133,12.3792 15.4178,35.7802 30.7657,71.5916 45.8432,107.5162 1.9431,4.6299 4.862,6.6488 9.3577,7.6417 6.8255,1.5077 13.5669,3.3997 20.39674,4.8854 5.0607,1.101 7.9916,3.866 9.6574,8.8785 4.8288,14.531 9.92556,28.97755 15.20256,43.35245 1.9432,5.2933 1.0819,9.6209 -2.2737,13.9447 -3.8796,4.9987 -7.32596,10.3347 -11.22406,15.318 -2.5524,3.2629 -3.012,6.2805 -1.162,10.0854 2.8964,5.9569 5.3613,12.1237 8.14916,18.5231 9.9333,0.4172 19.4256,1.8276 26.5931,9.4245 4.4645,4.7322 7.4929,10.1875 8.2538,16.7238 1.5645,13.4387 -5.1558,25.8387 -16.8634,31.2422 -12.0735,5.5725 -26.95576,2.2784 -35.47496,-7.8518 -9.78274,-11.6327 -9.24244,-24.3363 2.0802,-41.6924 -3.3722,-7.9392 -6.426,-16.4234 -10.51844,-24.3729 -3.5756,-6.9457 -2.8171,-12.4537 2.2395,-18.1697 3.51514,-3.9735 6.08794,-8.7692 9.49454,-12.8533 3.1018,-3.7185 3.8741,-7.1826 2.0436,-11.8738 -3.628,-9.2975 -6.9271,-18.7487 -9.7954,-28.30655 -1.46404,-4.8783 -4.44974,-6.9326 -9.00274,-7.9385 -6.1745,-1.3639 -12.2392,-3.2754 -18.4494,-4.4142 -6.2619,-1.1483 -9.6337,-4.6361 -12.0698,-10.4432 -13.5255,-32.2423 -27.3839,-64.3451 -41.1422,-96.4899 -1.293,-3.0211 -2.6818,-6.0013 -4.4993,-10.0559 -6.856,6.6085 -13.1284,12.6543 -19.8953,19.1769 12.6092,40.212 25.2386,80.4882 37.9038,120.87825 3.1073,0.394 5.75,0.5509 8.3143,1.0843 12.9166,2.6863 22.7739,13.6851 23.7189,26.3282 1.0202,13.6513 -6.0041,25.4964 -18.0827,30.4939 -12.3205,5.0971 -26.8766,1.2503 -35.0954,-9.2757 -7.9905,-10.2332 -8.8416,-24.898 -0.3731,-35.2419 4.7888,-5.8494 4.6857,-10.5692 2.5955,-17.0712 -10.698,-33.27775 -20.9845,-66.68775 -31.4427,-100.04305 -0.7889,-2.5166 -1.7922,-4.9659 -2.6865,-7.4205 -6.8418,-0.8141 -8.8969,3.5264 -10.3739,8.6149 -3.5404,12.1965 -2.3724,24.4117 -0.211,36.6358 0.1161,0.6559 0.192,1.3332 0.4174,1.9529 6.3421,17.4338 -0.4411,29.6419 -15.3275,38.6653 -1.1192,0.6785 -2.0838,1.6119 -3.7876,2.9513 2.229,10.792 4.4586,21.82505 6.793,32.83585 3.8666,18.2387 7.947,36.4335 11.6217,54.7105 1.1942,5.9399 3.79,10.009 9.1719,13.2332 14.857,8.9012 29.2406,18.59 44.025,27.6174 4.3364,2.648 6.7705,5.9841 8.0818,10.7414 3.26,11.8283 6.7854,23.5834 10.0956,34.9931 20.0643,2.888 30.8786,11.9167 32.5102,26.5131 1.5479,13.8459 -5.5777,26.3832 -17.9286,31.5448 -12.32,5.1486 -26.8485,1.3604 -35.1218,-9.1577 -9.5815,-12.1817 -8.3407,-25.1173 4.4686,-42.4387 -3.1488,-11.0333 -6.0882,-22.6379 -9.9329,-33.9343 -1.0254,-3.0124 -4.4887,-5.5928 -7.4039,-7.4967 -14.2248,-9.2914 -28.5105,-18.507 -43.0581,-27.2791 -5.9033,-3.5594 -8.987,-8.0471 -10.3486,-14.8137 -5.2533,-26.1086 -10.9853,-52.121 -16.5698,-78.1626 -0.6905,-3.2202 -1.5666,-6.40075 -2.3939,-9.75015 -12.69675,4.44685 -24.85233,8.70425 -38.2913,13.41105 0,8.375 0.063,17.6533 -0.0154,26.9304 -0.10705,12.6654 -0.075,25.3403 -0.60107,37.9904 -0.23987,5.7661 1.53595,10.0739 5.3128,14.3488 18.53565,20.9801 36.73077,42.2612 55.27157,63.2366 3.6777,4.1608 5.9231,8.4412 6.9019,13.9632 3.2473,18.3193 6.9952,36.5498 10.5804,54.9647 3.2062,0.8669 6.0968,1.4806 8.8738,2.4275 14.4787,4.9373 22.6444,18.7967 20.0345,33.8491 -2.4212,13.9635 -15.8377,24.8431 -30.0351,24.3556 -14.8186,-0.5088 -27.3222,-11.9344 -28.9082,-26.8666 -0.9668,-9.1029 1.6581,-17.5803 8.5244,-23.5515 4.703,-4.0899 4.6705,-7.8721 3.5484,-13.1736 -3.2395,-15.3077 -5.8597,-30.7457 -8.997,-46.0765 -0.638,-3.118 -1.8451,-6.5268 -3.859,-8.8904 -14.481,-16.9966 -29.23083,-33.7643 -43.93225,-50.5723 -0.59375,-0.6787 -1.55639,-1.035 -3.85309,-2.5063 0,6.5283 0.42774,12.0444 -0.0726,17.4749 -2.40546,26.1088 1.33667,51.0998 13.37561,74.5381 8.7602,17.055 10.77503,34.4224 4.73834,52.8548 -2.14654,6.5543 -2.64288,13.649 -3.95868,20.86 7.94452,5.94 14.83326,12.4899 16.49367,22.8435 1.0464,6.525 0.071,12.6346 -2.74592,18.4527 -5.6659,11.7008 -19.09693,18.4491 -31.55286,16.0399 -13.35907,-2.5838 -23.20251,-12.8227 -24.54565,-25.5317 -1.64588,-15.5736 5.75195,-25.8049 25.28119,-34.3845 2.48681,-12.9956 5.28588,-26.3313 7.43627,-39.7705 0.53638,-3.3521 -0.50097,-7.2265 -1.70129,-10.5396 -5.67017,-15.6509 -11.84228,-31.1218 -17.39508,-46.8126 -1.62012,-4.578 -2.52924,-9.6736 -2.50555,-14.5258 0.23083,-47.3298 0.73022,-94.6582 1.14746,-141.987 0.0256,-2.9087 0.003,-5.8179 0.003,-9.1934 -14.82812,0 -28.67688,0 -43.21063,0 -0.20575,2.7016 -0.58874,5.2372 -0.56372,7.7691 0.47351,47.9948 1.07288,95.9889 1.38757,143.9846 0.0318,4.8495 -0.94366,9.9409 -2.56988,14.523 -5.5672,15.6861 -11.71808,31.1639 -17.435,46.7985 -1.10815,3.0307 -2.20074,6.5641 -1.69861,9.6007 2.22254,13.4426 5.02936,26.7888 7.7442,40.7859 9.3888,2.4573 17.80402,6.9574 21.62,16.0846 2.33966,5.596 3.82257,12.2926 3.20135,18.2349 -1.45477,13.9149 -12.89166,24.0006 -26.82006,25.4309 -12.48603,1.282 -25.28223,-6.7582 -30.04517,-18.8781 -5.53204,-14.0771 -1.01392,-26.5215 14.73395,-38.6828 -1.10553,-6.217 -1.62818,-13.2215 -3.65143,-19.7616 -5.77008,-18.6519 -4.66779,-36.2585 4.38306,-53.8592 11.67346,-22.7011 15.85174,-47.0479 13.22552,-72.5637 -0.62878,-6.1092 -0.0933,-12.3381 -0.0933,-18.5121 -1.06641,-0.6281 -2.13281,-1.2563 -3.19928,-1.8845 -0.82776,1.7861 -1.30243,3.876 -2.53754,5.3117 -13.25891,15.4116 -26.69348,30.6723 -39.92578,46.1065 -2.09296,2.4412 -4.32465,5.3482 -4.95691,8.3617 -3.95892,18.8695 -7.48236,37.8305 -11.05078,56.2494 14.53015,16.2969 17.12335,29.7344 8.68146,42.6881 -7.22211,11.082 -21.48212,16.0294 -34.26477,11.8876 -12.30677,-3.9878 -20.76026,-15.9276 -20.5116,-28.9711 0.28632,-15.0198 10.0672,-25.2729 29.33984,-30.0221 2.51709,-12.594 5.99738,-25.4912 7.49018,-38.6142 1.88549,-16.5746 8.33777,-29.937 20.01782,-42.0359 16.18225,-16.7627 30.91406,-34.9325 46.08868,-52.6526 2.02393,-2.3635 4.23285,-5.6019 4.27527,-8.466 0.34479,-23.3004 0.19385,-46.6081 0.19385,-69.5473 -13.33929,-4.6236 -25.71075,-8.9116 -38.95746,-13.50305 -2.9931,13.52545 -5.90961,26.41185 -8.68689,39.32825 -3.56915,16.5993 -7.20917,33.1875 -10.43115,49.8553 -1.10034,5.692 -3.67499,9.5725 -8.61743,12.6109 -14.75775,9.0727 -29.15601,18.7362 -44.01007,27.643 -5.3299,3.196 -8.17383,7.2261 -9.56617,13.0757 -1.69366,7.1157 -3.64361,14.2173 -6.16583,21.0739 -2.05151,5.5769 -1.20709,9.4581 2.51654,14.3933 12.63788,16.7492 4.73413,40.0375 -14.99988,46.0073 -16.2539,4.9171 -33.25756,-4.6061 -37.37793,-20.9341 -4.1759,-16.548 5.82026,-33.1092 22.26093,-36.7109 2.58515,-0.5664 5.28595,-0.6051 9.10767,-1.0132 2.74951,-9.025 6.56573,-18.3043 8.25543,-27.9559 1.92206,-10.9787 8.01135,-17.3308 17.21356,-22.6165 13.27655,-7.6258 25.93378,-16.3268 38.90277,-24.4935 3.18408,-2.0054 5.66699,-4.0908 6.51813,-8.2196 6.04926,-29.3457 12.34814,-58.64 18.54321,-87.95575 0.19971,-0.9451 0.13727,-1.9455 0.21973,-3.2902 -4.23169,-3.5023 -8.61121,-7.0236 -12.87537,-10.6793 -6.96387,-5.9706 -9.14294,-13.4235 -7.48034,-22.4633 1.68304,-9.1513 3.36889,-18.3978 3.76886,-27.6579 0.2965,-6.864 -1.29511,-13.8428 -2.36329,-20.7211 -0.76281,-4.9122 -3.94299,-7.4448 -9.65155,-7.5232 -0.93304,2.6215 -2.00952,5.3627 -2.89074,8.1654 -10.68433,33.9821 -21.25763,67.9995 -32.08972,101.93425 -1.66535,5.2171 -1.45295,8.8134 2.42541,13.4486 9.16742,10.9566 8.70306,26.3204 0.14355,36.9056 -8.40679,10.3963 -22.89477,13.9255 -35.22821,8.5811 -11.94049,-5.174 -19.33728,-18.0354 -17.69024,-30.7587 1.79852,-13.893 11.97992,-24.0221 26.27222,-26.1127 1.62615,-0.2379 3.26745,-0.3727 5.79364,-0.6549 12.66442,-40.39815 25.3659,-80.91445 37.02813,-118.11575 -7.22735,-8.4658 -12.78845,-14.9798 -18.86371,-22.096 -1.84912,3.9635 -3.44982,7.1518 -4.84698,10.427 -13.58881,31.8535 -27.25226,63.6761 -40.612,95.6256 -2.54645,6.0897 -6.0611,9.8818 -12.74835,11.081 -6.53894,1.1724 -12.89118,3.3536 -19.40277,4.7238 -4.08075,0.8588 -6.19007,3.0806 -7.44721,6.95 -3.18884,9.81475 -6.42755,19.62885 -10.15546,29.24585 -1.69122,4.3631 -0.83068,7.5485 1.82129,10.9855 3.86505,5.0092 7.24701,10.3977 11.21247,15.3206 3.55554,4.4138 4.13049,8.7413 1.74518,13.8668 -3.08954,6.6388 -5.53022,13.5892 -8.7978,20.1321 -2.36059,4.7268 -1.87432,8.1309 1.11023,12.6779 10.76264,16.3963 4.24183,36.9639 -13.37756,44.0108 -16.09997,6.4392 -34.46771,-2.1898 -39.453,-18.5347 -5.13764,-16.8442 4.42999,-33.927 21.4024,-37.9067 3.83344,-0.8988 7.82984,-1.1024 12.45667,-1.7204 2.77789,-6.483 5.46417,-13.2664 8.5924,-19.8396 1.60792,-3.3786 0.28003,-5.6786 -1.54785,-8.1773 -3.73803,-5.11 -7.25329,-10.3927 -11.17694,-15.3539 -3.63482,-4.596 -4.51672,-8.9992 -2.32599,-14.759 5.20551,-13.6862 9.90906,-27.5733 14.44019,-41.50125 1.96344,-6.035 5.28095,-9.5051 11.73059,-10.5874 6.54468,-1.0981 12.89886,-3.286 19.40442,-4.6793 4.24915,-0.91 6.90564,-2.9387 8.66284,-7.104 15.40241,-36.5095 30.92066,-72.9709 46.6413,-109.3445 1.80194,-4.1693 1.03528,-7.4726 -0.25305,-11.4104 -9.82026,-30.015 -6.3581,-58.8766 10.56127,-85.2058 6.49341,-10.10473 5.81415,-18.33227 1.08887,-27.7694 -0.72387,-1.44568 -1.75427,-2.73785 -3.08545,-4.77978 -1.73736,2.0783 -3.36535,3.6278 -4.52228,5.47271 -9.3811,14.95911 -18.87975,29.85217 -27.84936,45.05627 -2.24609,3.8072 -3.60638,8.6258 -3.81866,13.054 -0.68586,14.3092 -0.82593,28.6535 -0.79456,42.9834 0.0114,5.2213 -1.25519,9.7284 -3.8717,14.1714 -9.12683,15.4973 -18.07209,31.1014 -27.61274,47.5739 6.4347,7.8654 9.5448,17.1627 7.26209,27.551 -1.39264,6.3376 -4.71063,11.6587 -9.75598,15.8982 -9.99762,8.4009 -24.45667,9.4346 -35.38092,2.4088 -11.25434,-7.238 -16.31885,-21.2728 -12.32111,-34.1455 4.33331,-13.953 15.70416,-20.8148 35.73486,-20.9309 8.90204,-15.3163 18.17328,-31.0576 27.1518,-46.9644 1.21142,-2.1462 1.22925,-5.1135 1.32544,-7.7181 0.57776,-15.6536 1.17944,-31.31 1.40643,-46.9706 0.0711,-4.9078 1.48773,-8.9362 4.07428,-13.022 11.93506,-18.85312 23.63818,-37.85306 36.01386,-57.74796 -4.58612,-4.26843 -9.02893,-8.62286 -13.71228,-12.70111 -4.75751,-4.14282 -9.7522,-8.01312 -15.08399,-12.36255 -1.96728,1.76282 -3.79187,3.08063 -5.22717,4.73596 -8.5152,9.82032 -16.84711,19.80103 -25.44586,29.5467 -2.99579,3.39538 -4.67499,6.93976 -5.04822,11.53277 -1.67291,20.58673 -3.85242,41.13399 -5.36402,61.73109 -0.4826,6.5768 -2.29278,12.1492 -6.04168,17.5677 -19.90582,28.7714 -39.50983,57.7517 -59.40357,86.5315 -3.17242,4.5895 -4.63726,9.1848 -4.71704,14.7865 -0.3938,27.6601 -1.14752,55.3147 -1.75207,82.9718 -0.0726,3.32105 -0.01,6.64505 -0.01,9.74415 16.61285,14.2055 21.02252,26.4883 14.72632,40.5165 -5.65161,12.592 -19.0979,19.5689 -32.90949,17.0759 -12.23871,-2.2092 -22.28399,-12.8685 -23.74377,-25.1952 -1.8689,-15.7811 5.6961,-26.6965 24.45349,-34.1561 0.37384,-10.42515 0.89893,-21.34285 1.12842,-32.26675 0.44116,-20.9939 0.83667,-41.9906 0.98346,-62.9879 0.0437,-6.2612 1.77783,-11.4548 5.39441,-16.6609 19.96093,-28.7331 39.52996,-57.7381 59.40057,-86.5346 3.12805,-4.5332 4.99054,-9.137 5.42926,-14.6664 1.65979,-20.9215 3.7937,-41.80598 5.36432,-62.73323 0.44775,-5.96631 2.28577,-10.67694 6.32282,-15.17334 10.67822,-11.89294 20.90649,-24.18994 31.90191,-37.0119 -11.80975,-12.35828 -11.80603,-28.18671 -12.73736,-44.76501 -2.39142,1.09228 -4.50129,1.68457 -6.1814,2.88055 -17.37451,12.36737 -34.63898,24.88953 -52.03827,37.2215 -3.48731,2.47161 -5.31958,5.26001 -5.97595,9.67035 -5.6864,38.20855 -11.77796,76.35699 -17.42529,114.57108 -0.86847,5.8765 -2.87025,10.7023 -6.55964,15.2611 -16.14337,19.9474 -32.00793,40.1209 -48.21246,60.018 -3.49945,4.2968 -5.79871,8.6983 -6.44928,14.2164 -1.40039,11.8783 -3.10474,23.7207 -4.64606,35.2878 16.09674,15.1548 19.87366,27.5243 12.87543,41.3323 -5.98541,11.8097 -19.54657,18.2676 -32.81018,15.6244 -12.54852,-2.5007 -21.97553,-13.2242 -23.43155,-26.6539 -1.60287,-14.7842 6.35159,-25 26.47763,-33.4569 1.58539,-11.807 3.39197,-23.9469 4.7829,-36.1342 0.77679,-6.8059 2.98779,-12.5217 7.48584,-17.9629 16.13598,-19.5199 31.85876,-39.3845 47.51941,-59.2906 2.58948,-3.2915 5.17181,-7.2464 5.89441,-11.2323 2.7904,-15.3928 4.83874,-30.9206 7.11841,-46.40475 0.18396,-1.24963 0.0244,-2.54986 0.0244,-6.0578 -35.02179,34.18625 -68.73493,67.09495 -102.12171,99.68515 4.16565,21.649 -0.38089,34.2776 -14.34265,41.0949 -12.00998,5.8642 -26.85153,2.8884 -35.60367,-7.1386 -8.57327,-9.822 -9.75769,-24.4035 -2.87143,-35.3502 8.26511,-13.1385 21.29987,-16.7573 40.13926,-10.79 1.7305,-1.4674 3.82522,-3.038 5.6842,-4.8505 36.03598,-35.1355 71.98038,-70.36529 108.13895,-105.37401 4.55945,-4.41437 7.23993,-9.04419 7.93805,-15.38257 1.01965,-9.25733 3.1698,-18.39374 4.10296,-27.6557 0.66211,-6.57141 3.55841,-10.77454 8.93171,-14.53589 22.38384,-15.66907 44.35919,-31.92194 66.74737,-47.58466 5.34875,-3.742 8.04272,-8.03375 9.18292,-14.42108 2.51374,-14.08112 5.85834,-28.01331 8.81909,-42.01569 0.52418,-2.47912 0.83167,-5.00402 1.43842,-8.73114 -15.85254,5.72052 -30.49573,11.00379 -45.13824,16.28901 -14.71894,5.31292 -29.36866,10.83111 -44.19422,15.82757 -4.94977,1.66815 -7.6759,4.21637 -8.99609,9.34015 -2.98877,11.59961 -6.7478,23.00024 -9.76099,34.59424 -1.19305,4.59082 -3.43848,7.68262 -7.59393,9.8244 -5.02985,2.59259 -9.73645,5.84052 -14.85016,8.23383 -4.72882,2.21313 -6.76233,5.70154 -7.92584,10.60339 -4.53589,19.10962 -9.5506,38.10565 -14.07703,57.21741 -1.3949,5.88965 -4.09546,10.18213 -9.39258,13.32757 -6.56097,3.89588 -12.71948,8.46967 -19.32159,12.93299 0.36395,3.44567 0.84961,6.67242 1.02215,9.91595 0.72315,13.59163 -6.74462,25.22923 -19.0393,29.84053 -12.59873,4.7253 -26.81168,0.4487 -34.72321,-10.4483 -7.63525,-10.51668 -7.44906,-25.01351 0.45569,-35.46462 7.97427,-10.54327 21.34949,-14.81939 33.89038,-9.61608 5.42792,2.25207 8.862,1.11553 13.64295,-1.40638 12.05072,-6.35657 19.21752,-15.25305 20.97308,-29.14093 1.20245,-9.5119 4.40161,-18.7699 6.65704,-28.15368 0.1402,-0.58344 -0.16601,-1.27417 -0.48993,-3.38105 -33.81811,19.1496 -67.18789,38.04529 -101.23739,57.32593 0.49136,9.94281 -0.72214,19.72919 -8.50647,27.34949 -4.94651,4.84234 -10.85944,7.6712 -17.62482,8.70239 -12.42471,1.89368 -25.59036,-5.685 -30.78097,-17.59851 -5.27363,-12.104 -2.21146,-25.93189 7.66806,-34.62708 11.00882,-9.68896 24.75283,-9.45788 41.04708,1.13788 5.69727,-3.19391 11.76535,-6.56414 17.80414,-9.98614 39.12607,-22.17121 78.19202,-44.44953 117.42499,-66.42981 5.90894,-3.31043 10.0802,-7.00586 11.18414,-14.04907 0.82044,-5.23426 2.76374,-10.29255 4.55939,-16.5481 -0.40015,-1.4458 -1.15289,-1.77264 -1.90558,-2.09961 -24.45416,8.6463 -48.92358,17.24982 -73.35681,25.95465 -15.02649,5.35346 -29.9978,10.86176 -45.29623,16.41016 -0.66867,2.98248 -1.26374,5.85351 -1.95884,8.70019 -3.26022,13.35151 -14.2875,22.64997 -27.71398,23.40442 -12.64801,0.71082 -24.91599,-7.67004 -29.28229,-20.00409 -4.36396,-12.32745 -0.16895,-26.15051 10.28851,-33.90216 10.78949,-7.99768 25.13443,-7.72729 36.18597,0.73358 1.83863,1.4076 3.53397,3.00238 5.79059,4.93464 3.88364,-1.26056 7.98212,-2.4643 11.9928,-3.91138 77.29712,-27.88855 154.57929,-55.81873 231.88294,-83.68927 5.44549,-1.96326 10.92749,-3.62934 10.24334,-11.7854 -28.79431,-3.89081 -52.58435,-15.78479 -64.86987,-45.03858 -13.06934,1.09827 -25.92798,2.28095 -38.80518,3.20606 -4.5827,0.32922 -5.87414,3.95691 -7.76275,6.9154 -10.38996,16.27576 -20.84662,32.51484 -30.8678,49.01709 -3.54828,5.84308 -7.85071,9.02973 -14.71124,10.40351 -20.19727,4.04443 -40.23993,8.8609 -60.76572,13.47003 -2.26105,9.72888 -5.7666,18.5813 -14.72995,23.97003 -5.61545,3.37598 -11.62601,4.78082 -18.13821,4.36615 -12.85361,-0.8186 -24.10294,-10.47961 -26.81784,-23.10516 -2.76993,-12.88135 3.05981,-26.0481 14.3616,-32.43653 13.4151,-7.58313 25.47766,-4.69159 41.46081,10.36017 14.45737,-3.13904 29.25467,-7.25274 44.33237,-9.36316 14.08722,-1.97174 23.56812,-8.18786 29.76532,-21.10254 4.43604,-9.2445 10.74866,-17.58856 16.69098,-27.36352 -0.26172,-1.31824 -0.99048,-1.6073 -1.71918,-1.89649 -13.24133,0.96119 -26.48266,1.92231 -39.27258,2.85065 -9.5614,19.5166 -20.88922,26.67285 -36.55396,23.63983 -12.62289,-2.44409 -22.53973,-13.60522 -23.51266,-26.46307 -1.04749,-13.84284 6.62244,-26.12244 19.181,-30.70886 14.27679,-5.21405 26.84637,-0.0535 38.81982,16.67102 34.02845,-3.05878 68.70368,-6.17572 104.19471,-9.36591 -1.57538,-22.25824 4.11493,-41.50201 18.77301,-57.67163 10.19189,-11.24292 22.83819,-18.27594 37.52404,-21.54443 31.17347,-6.93799 58.43592,6.66974 79.44318,39.84436 21.10608,-7.05799 40.87305,-0.32367 60.58099,7.31653 6.19428,2.40142 12.65625,4.10437 18.94831,6.26489 2.38214,0.81793 4.63067,2.02478 9.35687,4.13171 -4.29382,1.90369 -6.48486,3.78491 -8.49499,3.60828 -8.55927,-0.75189 -17.17133,-1.60999 -25.56238,-3.38367 -9.74372,-2.05957 -19.21649,-5.36883 -28.91602,-7.67706 -11.58362,-2.75653 -21.64294,0.49066 -30.40295,8.52527 -8.5221,7.81634 -14.3479,17.45898 -19.44635,27.62115 -11.8902,23.69922 -18.80921,49.02442 -24.52759,74.77191 -6.73279,30.31513 -10.69287,60.93659 -12.51874,91.95246 -1.19104,20.2326 4.83069,36.52527 20.49426,49.47064 7.95575,6.57507 15.38086,13.79242 23.04548,20.71973 8.56298,7.73919 15.36669,16.61169 18.28308,28.04846 0.31176,1.22265 1.16619,2.30694 2.10937,4.10431 6.8562,-9.84668 5.66992,-21.48084 9.77826,-31.43409 13.55145,24.79236 6.24347,45.13916 -6.36755,56.92487 -22.66114,21.17842 -29.2547,47.46902 -18.09619,76.59352 11.28997,29.4678 33.70788,45.7968 65.20654,48.137 27.66235,2.0553 50.10229,-8.865 66.71142,-30.9833 3.02283,-4.0252 4.43158,-9.5322 5.63532,-14.5818 1.32239,-5.5472 -0.8739,-9.7009 -5.66437,-13.6762 -6.05438,-5.0242 -11.15307,-11.4053 -15.86938,-17.7882 -7.11658,-9.6316 -13.6037,-19.7326 -20.24646,-29.7085 -4.22577,-6.3462 -10.04499,-10.3878 -17.00495,-13.3282 -7.32098,-3.093 -14.64886,-6.36067 -21.45965,-10.41548 -6.44226,-3.83526 -8.86408,-9.82208 -8.36011,-17.82587 1.68463,-26.75677 6.03479,-52.90185 15.84045,-77.93707 6.0412,-15.42431 6.6883,-31.08972 3.21277,-47.08496 -1.50049,-6.9054 -2.0332,-7.4079 -9.44464,-7.16901 -4.98358,0.16059 -9.95093,0.85511 -14.92285,1.3393 -26.89014,2.61859 -38.87067,-12.65759 -45.51361,-31.77185 -2.07745,-5.97766 0.48987,-10.1073 6.48956,-12.72882 20.7685,-9.07502 55.70007,-1.58576 70.22315,15.86108 3.60351,4.32904 5.63458,10.52234 6.81683,16.18671 1.96741,9.42639 2.48389,19.14557 3.94159,28.69098 1.87213,12.25885 -1.16181,23.78924 -4.52777,35.34375 -4.56006,15.6532 -9.37873,31.24609 -13.36206,47.04748 -3.30341,13.10443 0.65411,19.27167 13.94537,22.33478 9.05023,2.08563 18.34906,3.10046 27.5434,4.55145 12.47143,1.96796 24.90118,4.35822 37.44299,5.66059 7.15814,0.74322 14.59296,0.31927 21.74622,-0.69098 16.46264,-2.32514 32.83386,-5.30347 49.23046,-8.08594 2.61707,-0.44409 5.20987,-1.12714 7.75117,-1.90497 10.4435,-3.1969 14.506,-9.51013 12.071,-20.44104 -2.3855,-10.70892 -5.6457,-21.22467 -8.5851,-31.80762 -0.801,-2.8844 -1.5902,-5.8114 -2.7924,-8.53918 -10.8052,-24.51666 -7.00967,-49.51019 -2.7586,-74.58801 1.4346,-8.46344 5.883,-14.74115 12.5404,-19.667 18.7929,-13.9049 39.762,-16.09259 61.7747,-10.56323 9.5356,2.39514 11.7096,7.54035 7.9249,16.52277 -7.3739,17.50189 -19.0819,32.38299 -47.8345,28.10681 -3.6165,-0.5379 -7.2968,-0.77551 -10.9553,-0.87775 -8.0789,-0.2257 -9.0024,0.38361 -10.4374,8.57337 -2.5013,14.27606 -2.9869,28.5036 2.4737,42.34509 8.3637,21.20056 13.2284,43.23792 15.6616,65.84381 0.569,5.28565 0.5721,10.64227 1.3287,15.89527 1.1561,8.02844 -2.3935,13.789 -8.7596,17.63238 -6.2262,3.75897 -12.8134,7.15586 -19.6333,9.63656 -8.92274,3.2456 -15.37305,8.8233 -20.43446,16.6707 -6.49584,10.0712 -13.22259,20.0073 -20.221,29.7347 -3.48285,4.8411 -7.65021,9.2231 -11.77838,13.5551 -2.86908,3.0107 -8.24335,4.3011 -7.63837,9.6182 0.66339,5.8309 2.05676,11.5957 3.42853,17.3182 0.36126,1.5068 1.77643,2.782 2.77716,4.1113 19.56396,25.9866 55.14812,36.6059 86.01452,25.6806 31.1198,-11.0148 51.2939,-40.1923 50.1438,-73.1204 -0.6359,-18.2064 -7.9848,-34.0563 -21.3953,-45.8914 -16.034,-14.15017 -20.0951,-34.68459 -8.5218,-58.61117 5.1671,9.90546 2.9165,21.9607 11.3135,32.22974 2.9823,-19.28003 15.807,-30.00171 28.1047,-41.14496 7.1587,-6.48651 14.299,-13.00348 21.2124,-19.7478 9.5909,-9.35602 13.6023,-20.90729 13.5625,-34.28192 -0.08,-26.7685 -3.4408,-53.19654 -8.3181,-79.4043 -5.4242,-29.1463 -11.6994,-58.18927 -24.2204,-85.29578 -4.8576,-10.51611 -10.5474,-20.84833 -17.27,-30.25512 -9.9256,-13.88813 -23.4739,-20.37616 -40.9507,-15.25782 -8.2957,2.42945 -16.5683,5.0152 -24.9908,6.9101 -7.4144,1.66821 -14.9936,2.77771 -22.56042,3.50934 -3.02179,0.29223 -6.20563,-1.09076 -9.31568,-1.71125 -0.60668,-1.02117 -1.21343,-2.04241 -1.82012,-3.06359 1.57904,-0.55652 3.14947,-1.13929 4.73858,-1.66547 15.78644,-5.22662 31.46464,-10.82001 47.40174,-15.53839 11.6794,-3.45777 23.6659,-3.74475 35.8728,0.82794 20.6178,-34.96246 50.1202,-50.20868 89.9157,-36.83356 30.89334,10.383 46.4349,37.24012 46.2485,75.90723 34.6565,3.13769 69.3935,6.28272 103.6695,9.38599 14.3263,-17.4585 26.2182,-22.10029 40.4277,-16.21405 12.0609,4.99621 19.6869,17.77496 18.1549,30.4226 -1.6293,13.45124 -11.1598,24.01795 -23.7516,26.33411 -15.6118,2.87158 -26.1846,-3.90314 -36.2938,-23.48932 -12.3904,-1.09351 -24.9899,-2.22107 -37.5946,-3.28607 -0.94,-0.0795 -1.9177,0.28906 -3.834,0.60889 1.2997,2.61828 2.2356,4.97235 3.5564,7.08569 6.71,10.73523 13.6703,21.31708 20.2197,32.14807 2.5844,4.27399 5.5971,6.68909 10.7284,7.73291 18.8954,3.84363 37.6691,8.28601 56.9347,12.60315 6.7745,-7.88538 14.5421,-14.65637 25.233,-14.25897 6.0379,0.22449 12.6261,2.09594 17.8205,5.16522 11.2418,6.64246 15.5688,20.46954 11.7768,33.26563 -3.6981,12.47845 -15.2064,20.86779 -28.5603,20.81982 -15.2451,-0.0548 -24.7436,-8.68085 -30.6771,-28.38977 -14.2057,-3.19733 -28.7806,-6.49127 -43.3627,-9.75342 -6.4979,-1.4538 -12.9836,-2.9856 -19.5247,-4.21649 -4.9216,-0.92609 -8.2527,-3.39874 -10.9285,-7.73749 -10.492,-17.01294 -21.4629,-33.7312 -31.9097,-50.77112 -3.0708,-5.00879 -6.5394,-7.46472 -12.6323,-7.69433 -11.2625,-0.42444 -22.488,-1.82746 -34.2362,-2.86768 -12.20146,28.86328 -35.596,41.31238 -65.1567,44.98218 -0.625,8.13067 5.0264,9.95233 10.6318,11.97174 62.9573,22.68133 125.9004,45.4024 188.8508,68.10284 18.1361,6.54004 36.2836,13.04859 54.1115,19.45856 17.7437,-13.2085 30.8318,-14.79468 43.0001,-5.51031 10.9805,8.37805 14.7429,23.13928 9.151,35.90179 -5.2212,11.91602 -18.3745,19.41132 -30.8157,17.55957 -15.1802,-2.25934 -24.1315,-12.51251 -26.7051,-31.63135 -39.6932,-14.34674 -79.9306,-28.89013 -121.1759,-43.79785 1.0679,10.27252 4.4086,18.89069 7.1899,27.60059 0.504,1.57861 2.755,2.80963 4.445,3.76849 45.777,25.97071 91.5852,51.88623 137.397,77.7956 0.5677,0.32116 1.2487,0.44232 1.8778,0.65374 16.5839,-10.80456 30.1466,-10.94446 42.6969,1.04309 9.5603,9.13172 11.3451,23.39661 5.1443,35.0304 -6.1572,11.55206 -19.4497,17.77691 -32.0236,14.99676 -15.9908,-3.5357 -23.0743,-13.65661 -24.5857,-35.87597 -32.8208,-18.59449 -66.0374,-37.41321 -100.7732,-57.09253 0.4644,4.45202 0.4488,7.026 1.0348,9.45483 2.7327,11.32568 5.7439,22.58472 8.4148,33.92432 1.0545,4.47668 3.0327,7.93097 7.2263,10.08771 2.0601,1.0595 3.982,2.44574 5.8157,3.87725 6.4806,5.05921 12.3561,7.75397 21.4878,3.9892 11.9386,-4.92218 25.759,1.79993 32.6334,13.0733 6.7328,11.04114 5.3853,25.74018 -3.2374,35.31526 -8.8246,9.7994 -22.6678,12.6369 -34.6844,7.1095 -11.9882,-5.5143 -18.9029,-18.09724 -17.0024,-31.01985 0.3345,-2.27429 0.8413,-4.52313 1.3984,-7.47064 -6.9449,-4.69263 -13.7019,-9.46381 -20.6744,-13.89594 -4.4941,-2.85675 -6.9583,-6.51751 -8.2024,-11.82135 -4.5606,-19.4436 -9.7324,-38.74316 -14.4112,-58.16027 -1.1726,-4.86689 -2.991,-8.74256 -7.9729,-10.4795 -0.3074,-0.10705 -0.5486,-0.4068 -0.8565,-0.50805 -16.4174,-5.40113 -23.7243,-17.65357 -26.3261,-33.95124 -1.0414,-6.52307 -3.9436,-12.73047 -5.313,-19.22607 -0.9749,-4.62409 -3.6253,-6.57922 -7.7157,-8.03522 -28.8526,-10.27038 -57.65056,-20.69342 -87.6538,-31.39148 -1.5231,0.53253 -1.8584,1.38886 -2.1937,2.24518 3.6163,17.24726 7.4467,34.45416 10.7065,51.7685 0.8755,4.64959 3.8618,6.71502 7.0626,9.01525 22.70784,16.31873 45.3277,32.76392 68.2357,48.79688 5.4112,3.78717 8.1357,8.18091 8.847,14.64136 1.0915,9.91333 2.5286,19.81506 4.4559,29.59625 0.7248,3.67767 2.4359,7.80792 5.0378,10.37146 37.9491,37.39136 76.1243,74.55313 114.262,111.75303 0.4552,0.4439 1.1259,0.6668 1.6821,0.9851 20.5205,-5.2755 33.1691,-1.5614 40.9783,12.0208 6.6547,11.5743 4.6249,26.4371 -4.9001,35.8814 -9.5605,9.4794 -24.2142,11.3729 -35.9097,4.6402 -12.9342,-7.4456 -17.057,-19.999 -12.2012,-39.6837 -32.7416,-31.9378 -66.032,-64.411 -100.2898,-97.6337 -1.3659,0.14453 -1.7644,1.03852 -2.1628,1.9325 m -299.99885,137.21 c -7.64782,-8.9482 -15.29559,-17.8965 -23.16986,-27.1097 -19.4848,34.5185 -49.91839,51.3009 -90.88464,50.5279 3.35516,16.4131 2.23486,31.8598 -0.66467,47.2392 -0.85352,4.5269 1.25708,7.9917 4.59308,10.3735 16.3706,11.6884 33.74695,21.5322 53.99737,24.4039 22.50464,3.1916 45.16126,3.1856 67.66712,-0.017 19.90496,-2.8324 36.98475,-12.5481 53.18745,-23.8579 4.4693,-3.1195 5.5973,-7.575 4.815,-13.1709 -1.286,-9.1988 -2.0318,-18.5136 -2.2928,-27.7996 -0.154,-5.4846 1.0628,-11.0079 1.7472,-17.2847 -25.70399,0.6093 -48.61182,-5.649 -68.99525,-23.3048 M 936.4762,387.644 c -25.0564,2.55005 -44.0994,17.80896 -47.5974,38.30249 4.6176,4.93323 9.3094,9.94562 14.3144,15.29272 2.4284,-2.66675 4.2867,-4.95135 6.3924,-6.97882 11.3023,-10.88171 24.8115,-16.5581 40.5271,-16.44409 6.4231,0.0466 7.3875,0.96381 10.109,6.13788 -24.6508,-0.13312 -43.0255,10.50659 -49.6656,28.81665 3.5953,7.4281 7.3049,14.86365 10.8082,22.39526 3.4852,7.49274 6.7628,15.08203 9.9061,22.12427 30.2962,4.19244 56.52434,-12.96033 61.38224,-40.77679 7.35216,-42.09809 -23.23674,-70.45466 -56.17644,-68.86957 m -443.25441,95.62701 c 11.20184,10.57459 24.44812,15.52643 39.89734,15.13007 5.04651,-0.1294 7.84088,-2.08515 9.81494,-6.60254 5.84247,-13.36981 11.98328,-26.60925 18.34503,-40.64459 -10.9115,-19.6427 -28.28754,-28.37665 -51.89996,-27.15198 3.96106,-5.89887 8.92743,-6.45032 13.86981,-6.23145 15.59686,0.69086 29.00812,6.54267 39.96607,17.77173 1.73779,1.78076 3.38616,3.64868 5.20562,5.61658 5.21399,-5.64185 9.92078,-10.73486 14.54743,-15.74115 -7.47303,-27.55261 -37.28955,-43.71228 -65.27881,-36.01068 -39.22437,10.79291 -53.58917,63.69 -24.46747,93.86401 z"
     data-index="1"
     id="path1"
     inkscape:label="path1" /><path
     fill="#ff8907"
     opacity="1"
     stroke="none"
     d="m 882.7612,373.59914 c -16.4989,4.57745 -32.2018,8.98645 -47.9604,13.18689 -4.3751,1.1662 -7.9987,2.9599 -10.2031,7.13214 -0.9268,1.75427 -2.6047,3.1571 -3.3309,4.96484 -6.1478,15.30237 -20.24923,16.12097 -34.94699,19.80176 2.62213,-3.98285 4.16944,-6.48554 5.86426,-8.88403 19.61063,-27.75306 39.34603,-55.41889 58.76483,-83.30542 3.0532,-4.38465 6.5471,-6.98371 11.5564,-8.63996 33.4988,-11.0758 66.9161,-22.39776 100.3539,-33.6579 3.1217,-1.0512 6.2012,-2.22802 9.6235,-3.46325 0.2713,-2.48944 0.4242,-4.76392 0.7785,-7.00659 2.4968,-15.81012 15.90824,-26.53641 31.8566,-25.52305 15.0486,0.95618 27.2696,13.96479 27.4242,29.19169 0.1593,15.68328 -11.7241,28.88555 -27.5611,30.24066 -7.96726,0.68176 -15.34216,-1.61786 -21.23206,-7.0235 -3.5122,-3.22351 -6.73914,-3.276 -10.85504,-1.8844 -33.744,11.40875 -67.5317,22.68848 -101.2805,34.08331 -2.1556,0.72779 -4.7794,1.57715 -6.0252,3.23951 -6.72,8.96557 -13.0734,18.20593 -19.5533,27.35156 0.4513,0.61151 0.9026,1.22296 1.3539,1.83447 3.4292,-0.82416 6.8874,-1.54443 10.2832,-2.48846 38.8041,-10.78663 77.5589,-21.75464 116.4329,-32.28217 6.95024,-1.88208 14.36194,-2.43866 21.60004,-2.78577 9.60206,-0.46045 19.24286,-0.11352 28.74056,-0.11352 10.832,-19.6026 22.3341,-26.51489 37.55,-22.71607 12.4865,3.11731 21.8386,14.52533 22.5254,27.4773 0.6826,12.87335 -7.5702,25.27173 -19.6818,29.56848 -14.6224,5.18744 -26.8432,-0.0941 -38.9704,-17.23236 -13.7582,-0.008 -27.91246,-0.4917 -43.81226,0.0255 2.1966,3.30475 2.9988,4.99298 4.223,6.27979 13.5516,14.24511 27.19456,28.40319 40.74676,42.6477 2.8356,2.98059 5.6033,5.11414 10.2354,4.97675 12.3107,-0.36524 24.6394,-0.12415 36.4481,-0.12415 12.6183,-20.99981 23.7254,-27.57 38.7901,-23.48871 12.4658,3.37714 21.6173,14.9527 22.0315,27.86768 0.4166,12.98425 -7.9591,25.09607 -20.1909,29.19781 -14.6856,4.92456 -26.8475,-0.40167 -37.6412,-16.42425 -10.9874,0 -21.9146,-0.0484 -32.8415,0.0101 -22.8618,0.12231 -16.0629,3.13416 -31.7421,-13.01123 -14.85816,-15.29999 -29.69276,-30.62854 -44.2284,-46.23273 -3.7277,-4.00201 -7.0854,-4.80529 -12.2545,-3.30267 -23.9702,6.96777 -48.0537,13.54675 -72.8714,20.51227 z"
     data-index="9"
     id="path9" /><path
     fill="#ff8907"
     opacity="1"
     stroke="none"
     d="m 389.83147,422.73256 c -9.75714,11.52588 -26.51672,14.61133 -39.42041,6.00262 -10.36249,-6.91326 -15.40344,-19.11981 -12.82562,-31.34368 2.39062,-11.33637 12.40948,-20.98322 23.81708,-22.93274 12.20233,-2.08533 24.43878,3.46356 30.75518,14.11145 1.67212,2.81872 2.93921,5.8778 4.9253,9.90808 12.6416,0 25.60455,0.14636 38.55835,-0.1333 2.36456,-0.0511 5.30407,-1.24146 6.94036,-2.91846 14.8877,-15.25775 29.55555,-30.73041 44.2334,-46.19177 0.60962,-0.64215 0.68396,-1.79236 1.3833,-3.76563 -3.21655,-0.37799 -6.03759,-0.97198 -8.86303,-0.99335 -9.32819,-0.0707 -18.66254,0.25965 -27.98505,0.0383 -4.48682,-0.10656 -7.05505,1.43604 -9.63678,5.27204 -7.97717,11.8529 -20.21075,16.25439 -32.93018,12.70923 -13.22192,-3.68524 -21.6773,-14.96576 -21.65545,-28.89099 0.0212,-13.49268 9.04754,-25.20752 22.0877,-28.66663 12.46558,-3.3067 26.00458,2.17108 32.80805,13.42889 1.70117,2.81494 2.9765,5.88721 4.60419,9.15583 10.5603,0 21.18841,-0.24781 31.79687,0.10107 5.58466,0.18366 11.30341,0.79419 16.67395,2.26355 40.12171,10.97754 80.16974,22.22455 120.24768,33.36224 2.81769,0.78308 5.69062,1.36713 10.16919,2.43128 -1.93048,-5.94806 -5.69678,-9.24494 -7.83325,-13.38068 -7.01099,-13.57086 -18.17017,-20.46972 -32.81751,-24.77252 -28.39538,-8.34143 -56.24127,-18.55304 -84.31921,-27.97662 -2.51672,-0.84467 -5.06531,-1.59449 -7.44598,-2.34034 -17.30616,13.2121 -29.49317,14.20258 -43.62873,3.20703 -10.25744,-7.97894 -13.28466,-22.59576 -8.05987,-34.46652 5.31854,-12.08362 17.38922,-19.02533 30.71979,-17.6665 14.82824,1.51147 23.30633,11.42132 27.5578,32.82144 12.48474,4.23126 25.35351,8.61737 38.23877,12.95435 23.97271,8.06878 47.99945,15.98169 71.8844,24.30194 3.48657,1.21454 7.18908,3.68768 9.31414,6.64142 21.00739,29.20001 41.70691,58.62152 62.47364,87.99438 0.93762,1.32617 1.68383,2.78754 3.52044,5.86231 -9.14264,-2.50727 -16.85785,-4.13306 -24.15259,-6.8769 -2.72625,-1.02539 -5.15814,-4.32202 -6.54669,-7.15936 -6.19519,-12.65924 -16.4367,-18.2016 -29.95935,-21.60211 -36.13324,-9.08637 -71.93207,-19.52979 -107.73004,-29.89557 -6.10358,-1.76733 -9.80591,-0.55396 -13.9234,3.84033 -15.71753,16.77411 -32.05981,32.97339 -47.4732,50.01648 -6.2273,6.88568 -12.779,9.29327 -21.80976,8.77448 -12.59509,-0.72364 -25.26288,-0.18232 -38.85773,-0.18232 -1.02423,1.50342 -2.68981,3.94806 -4.83575,6.95728 z"
     data-index="10"
     id="path10" /><path
     fill="#ff8907"
     opacity="1"
     stroke="none"
     d="m 648.04827,255.79573 c -15.21393,-9.29156 -16.86817,-25.20642 -13.6485,-35.06399 5.04809,-15.4556 21.3211,-24.09879 36.64874,-19.49619 15.80243,4.74518 24.87042,21.30969 20.19049,37.10754 -0.93249,3.14771 -2.38434,6.14154 -3.82953,9.79511 10.16321,16.10675 20.15399,32.61804 30.8982,48.62353 4.11627,6.13196 5.01959,11.57569 2.90216,18.58997 -5.57617,18.47119 -10.37403,37.17584 -15.76606,55.7049 -1.52551,5.24224 -0.98852,9.34448 2.49848,13.76733 7.21234,9.14807 13.88678,18.72266 20.69916,28.18182 1.66058,2.30573 2.99902,4.84345 5.55865,9.0293 -6.9339,0 -12.29986,0.7807 -17.26617,-0.29083 -3.00977,-0.64948 -5.98835,-3.73639 -7.9798,-6.46021 -22.21234,-30.38006 -44.81732,-60.50036 -66.07117,-91.54327 -12.13879,-17.72956 -26.48278,-31.86756 -45.57495,-41.90955 -16.16314,-8.50134 -31.40985,-18.74493 -46.78656,-28.05072 -20.46533,8.40836 -33.27502,6.78372 -42.98181,-5.18451 -8.09644,-9.98275 -8.70032,-24.74969 -1.44885,-35.43115 7.43268,-10.94846 20.95312,-15.71081 33.38708,-11.75992 15.03784,4.77826 21.55945,16.50275 20.77954,38.1626 9.86957,6.04315 20.04724,12.30746 30.25733,18.51846 13.08557,7.96015 26.32519,15.67743 39.22278,23.93024 4.07244,2.6059 7.87078,6.14252 10.74914,10.02765 14.67066,19.80237 28.9856,39.8681 43.46204,59.81482 1.90484,2.62469 4.02215,5.09515 6.82165,8.61993 4.69855,-16.99426 9.12055,-32.65185 13.26178,-48.38342 0.52838,-2.00732 0.28583,-4.82654 -0.77295,-6.54791 -9.74347,-15.84034 -19.74572,-31.52155 -29.77832,-47.41654 -8.89325,2.2742 -17.05334,2.19205 -25.43255,-2.33499 z"
     data-index="15"
     id="path15" /><path
     fill="#ff8907"
     opacity="1"
     stroke="none"
     d="m 836.2863,285.25258 c 25.3106,-15.47717 50.064,-30.50754 74.7847,-45.51797 0,-3.64606 -0.044,-6.94288 0.01,-10.23817 0.2088,-13.23904 8.6565,-24.37231 21.383,-28.22857 12.1375,-3.67777 25.2027,0.92276 32.6116,11.48294 7.3136,10.42432 7.2069,24.43658 -0.264,34.63476 -7.7322,10.55488 -21.4209,14.92716 -33.7956,10.6048 -3.105,-1.08456 -6.0063,-2.75213 -9.6792,-4.46863 -7.6767,4.65778 -15.6181,9.4816 -23.5649,14.2967 -14.242,8.62951 -28.6469,17.00524 -42.6439,26.01501 -4.8937,3.14996 -9.5796,7.27313 -13.0087,11.94415 -25.6269,34.90888 -50.91041,70.06977 -76.31147,105.14447 -8.42853,11.63831 -8.44232,11.63532 -22.75458,10.95911 -1.31952,-0.0623 -2.63165,-0.28149 -4.88977,-0.53271 1.13928,-2.3277 1.82514,-4.41156 3.04596,-6.11109 7.19098,-10.01007 14.33313,-20.06427 21.8562,-29.82269 3.53931,-4.59113 4.61615,-8.70862 2.8324,-14.59644 -5.59479,-18.46661 -10.24756,-37.21649 -15.617,-55.7547 -1.89789,-6.55237 -1.37696,-11.8999 2.57922,-17.81323 10.72717,-16.03412 20.74017,-32.54608 31.27783,-49.25155 -4.45611,-8.87305 -7.07764,-17.98572 -3.50433,-27.79413 2.2409,-6.15097 5.9284,-11.146 11.2962,-14.8617 10.73261,-7.42929 25.39144,-6.9227 35.41164,1.16855 10.4499,8.43829 13.9632,22.76019 8.6395,35.2193 -5.895,13.79608 -17.7571,19.17123 -38.30706,16.90018 -9.57098,15.12716 -19.46222,30.48727 -28.96435,46.08438 -1.36603,2.24219 -1.74,5.85559 -1.06971,8.44531 3.90058,15.0708 8.25037,30.02533 13.03321,47.10785 19.86547,-25.15631 36.61631,-50.50726 55.61541,-75.01593 z"
     data-index="16"
     id="path16" /></g>












































</svg>
